<svg version="1.1" viewBox="0.0 0.0 960.0 540.0" fill="none" stroke="none" stroke-linecap="square" stroke-miterlimit="10" xmlns:xlink="http://www.w3.org/1999/xlink" xmlns="http://www.w3.org/2000/svg"><clipPath id="g106970b50e5_0_91.0"><path d="m0 0l960.0 0l0 540.0l-960.0 0l0 -540.0z" clip-rule="nonzero"/></clipPath><g clip-path="url(#g106970b50e5_0_91.0)"><path fill="#efefef" d="m0 0l960.0 0l0 540.0l-960.0 0z" fill-rule="evenodd"/><path fill="#000000" fill-opacity="0.0" d="m58.349083 435.95276l681.3229 0l0 55.811035l-681.3229 0z" fill-rule="evenodd"/><path fill="#333333" d="m74.61471 390.70502l35.8125 16.171875l0 2.765625l-39.234375 -17.765625l0 -2.34375l39.234375 -17.71875l0 2.71875l-35.8125 16.171875zm99.56249 23.90625q-2.578125 3.5625 -9.046875 5.90625q-6.46875 2.34375 -14.25 2.34375q-7.59375 0 -13.546875 -3.703125q-5.953125 -3.703125 -9.3125 -10.453125q-3.3437424 -6.75 -3.4374924 -15.28125l0 -11.71875q0 -8.390625 3.234375 -15.046875q3.2343674 -6.65625 9.093742 -10.28125q5.859375 -3.640625 13.171875 -3.640625q10.171875 0 16.5625 5.203125q6.40625 5.203125 7.4375 14.203125l-2.53125 0q-1.265625 -8.15625 -6.796875 -12.515625q-5.53125 -4.359375 -14.671875 -4.359375q-10.3125 0 -16.640625 7.359375q-6.3281174 7.359375 -6.3281174 19.359375l0 10.875q0 8.015625 2.9687424 14.296875q2.984375 6.28125 8.390625 9.734375q5.421875 3.4375 12.40625 3.4375q6.84375 0 12.703125 -2.015625q5.859375 -2.015625 8.0625 -4.875l0 -19.875l-20.859375 0l0 -2.578125l23.390625 0l0 23.625zm35.765625 0.65625l1.359375 4.125l1.359375 -4.125l22.921875 -61.59375l2.765625 0l-25.5 68.25l-3.09375 0l-25.5 -68.25l2.765625 0l22.921875 61.59375z" fill-rule="nonzero"/><path fill="#333333" d="m299.00534 391.5019q0 9.421875 -3.265625 16.546875q-3.25 7.125 -9.296875 10.96875q-6.046875 3.84375 -13.96875 3.84375q-11.953125 0 -19.312515 -8.546875q-7.359375 -8.5625 -7.359375 -23.09375l0 -7.03125q0 -9.328125 3.296875 -16.515625q3.3125 -7.203125 9.35939 -11.0625q6.046875 -3.875 13.921875 -3.875q7.875 0 13.890625 3.796875q6.03125 3.796875 9.3125 10.734375q3.28125 6.9375 3.421875 16.078125l0 8.15625zm-5.765625 -7.40625q0 -12.328125 -5.578125 -19.3125q-5.578125 -6.984375 -15.28125 -6.984375q-9.515625 0 -15.171875 7.015625q-5.6406403 7.0 -5.6406403 19.5625l0 7.125q0 12.140625 5.6250153 19.25q5.625 7.09375 15.28125 7.09375q9.796875 0 15.28125 -7.0q5.484375 -7.015625 5.484375 -19.53125l0 -7.21875zm50.8125 6.9375l-33.328125 -14.203125l0 -5.765625l39.609375 17.71875l0 4.546875l-39.609375 17.765625l0 -5.8125l33.328125 -14.25z" fill-rule="nonzero"/><path fill="#434343" d="m78.88033 475.8744q-2.40625 0 -4.125 -0.96875q-1.703125 -0.96875 -2.78125 -2.625q-1.078125 -1.65625 -1.578125 -3.734375q-0.5 -2.078125 -0.5 -4.265625q0 -2.25 0.515625 -4.328125q0.53125 -2.078125 1.625 -3.703125q1.109375 -1.640625 2.8125 -2.59375q1.703125 -0.953125 4.03125 -0.953125q1.75 0 2.984375 0.5q1.25 0.484375 2.09375 1.265625q0.84375 0.765625 1.421875 1.59375l-1.515625 0.921875q-0.75 -1.046875 -1.921875 -1.84375q-1.171875 -0.796875 -3.0625 -0.796875q-2.015625 0 -3.390625 0.890625q-1.375 0.890625 -2.21875 2.359375q-0.84375 1.453125 -1.21875 3.21875q-0.359375 1.75 -0.359375 3.46875q0 1.9375 0.40625 3.71875q0.421875 1.765625 1.28125 3.1875q0.859375 1.40625 2.21875 2.21875q1.375 0.8125 3.28125 0.8125q1.703125 0 2.953125 -0.796875q1.265625 -0.796875 1.953125 -2.34375q0.703125 -1.546875 0.703125 -3.796875l0 -0.5625l-4.5 0l0 -1.59375l6.265625 0l0 1.640625q0 3.140625 -0.96875 5.15625q-0.953125 2.015625 -2.625 2.984375q-1.671875 0.96875 -3.78125 0.96875zm21.87204 0q-2.46875 0 -4.203125 -1.015625q-1.734375 -1.015625 -2.78125 -2.703125q-1.046875 -1.703125 -1.53125 -3.75q-0.46875 -2.046875 -0.46875 -4.125q0 -2.078125 0.46875 -4.125q0.484375 -2.046875 1.53125 -3.734375q1.046875 -1.6875 2.78125 -2.703125q1.734375 -1.015625 4.203125 -1.015625q2.484375 0 4.203125 1.015625q1.71875 1.015625 2.765625 2.703125q1.0625 1.6875 1.546875 3.734375q0.484375 2.046875 0.484375 4.125q0 2.078125 -0.484375 4.125q-0.484375 2.046875 -1.546875 3.75q-1.046875 1.6875 -2.765625 2.703125q-1.71875 1.015625 -4.203125 1.015625zm0 -1.65625q2.015625 0 3.390625 -0.890625q1.375 -0.890625 2.21875 -2.359375q0.84375 -1.46875 1.21875 -3.21875q0.375 -1.75 0.375 -3.46875q0 -1.890625 -0.375 -3.65625q-0.375 -1.765625 -1.21875 -3.1875q-0.84375 -1.421875 -2.21875 -2.265625q-1.375 -0.84375 -3.390625 -0.84375q-2.0 0 -3.390625 0.890625q-1.375 0.890625 -2.21875 2.359375q-0.828125 1.46875 -1.203125 3.234375q-0.375 1.75 -0.375 3.46875q0 1.875 0.375 3.65625q0.375 1.765625 1.203125 3.203125q0.84375 1.421875 2.21875 2.25q1.390625 0.828125 3.390625 0.828125zm23.056046 1.65625q-2.46875 0 -4.203125 -1.015625q-1.734375 -1.015625 -2.78125 -2.703125q-1.046875 -1.703125 -1.53125 -3.75q-0.46875 -2.046875 -0.46875 -4.125q0 -2.078125 0.46875 -4.125q0.484375 -2.046875 1.53125 -3.734375q1.046875 -1.6875 2.78125 -2.703125q1.734375 -1.015625 4.203125 -1.015625q2.484375 0 4.2031174 1.015625q1.71875 1.015625 2.765625 2.703125q1.0625 1.6875 1.546875 3.734375q0.484375 2.046875 0.484375 4.125q0 2.078125 -0.484375 4.125q-0.484375 2.046875 -1.546875 3.75q-1.046875 1.6875 -2.765625 2.703125q-1.7187424 1.015625 -4.2031174 1.015625zm0 -1.65625q2.015625 0 3.390625 -0.890625q1.3749924 -0.890625 2.2187424 -2.359375q0.84375 -1.46875 1.21875 -3.21875q0.375 -1.75 0.375 -3.46875q0 -1.890625 -0.375 -3.65625q-0.375 -1.765625 -1.21875 -3.1875q-0.84375 -1.421875 -2.2187424 -2.265625q-1.375 -0.84375 -3.390625 -0.84375q-2.0 0 -3.390625 0.890625q-1.375 0.890625 -2.21875 2.359375q-0.828125 1.46875 -1.203125 3.234375q-0.375 1.75 -0.375 3.46875q0 1.875 0.375 3.65625q0.375 1.765625 1.203125 3.203125q0.84375 1.421875 2.21875 2.25q1.390625 0.828125 3.390625 0.828125zm14.771416 1.265625l0 -22.40625l5.453125 0q2.8125 0 4.734375 0.96875q1.9375 0.953125 3.109375 2.5625q1.1875 1.609375 1.703125 3.609375q0.53125 1.984375 0.53125 4.0625q0 1.9375 -0.484375 3.90625q-0.484375 1.96875 -1.640625 3.625q-1.15625 1.65625 -3.125 2.671875q-1.953125 1.0 -4.953125 1.0l-5.328125 0zm1.703125 -1.625l3.734375 0q2.4375 0 4.046875 -0.859375q1.609375 -0.859375 2.546875 -2.265625q0.9375 -1.40625 1.328125 -3.09375q0.40625 -1.6875 0.40625 -3.359375q0 -1.765625 -0.4375 -3.484375q-0.4375 -1.71875 -1.390625 -3.09375q-0.9375 -1.375 -2.5 -2.1875q-1.546875 -0.8125 -3.78125 -0.8125l-3.953125 0l0 19.15625zm31.58992 1.625l-7.65625 -22.40625l1.828125 0l6.046875 17.859375q0.125 0.375 0.25 0.78125q0.140625 0.40625 0.265625 0.875q0.140625 -0.46875 0.265625 -0.859375q0.125 -0.40625 0.25 -0.796875l5.984375 -17.859375l1.828125 0l-7.65625 22.40625l-1.40625 0zm14.27504 0l0 -22.40625l1.703125 0l0 22.40625l-1.703125 0zm8.384018 0l0 -22.40625l7.234375 0q2.5 0 3.921875 0.828125q1.4375 0.828125 2.03125 2.140625q0.59375 1.296875 0.59375 2.71875q0 1.75 -1.046875 3.125q-1.03125 1.359375 -2.921875 1.859375q1.421875 0.234375 2.5 0.984375q1.078125 0.734375 1.671875 1.921875q0.59375 1.171875 0.59375 2.671875q0 1.09375 -0.34375 2.203125q-0.328125 1.09375 -1.109375 1.984375q-0.78125 0.890625 -2.109375 1.4375q-1.3125 0.53125 -3.265625 0.53125l-7.75 0zm1.703125 -1.53125l6.34375 0q1.890625 0 2.9375 -0.640625q1.0625 -0.65625 1.484375 -1.65625q0.421875 -1.015625 0.421875 -2.109375q0 -1.296875 -0.484375 -2.40625q-0.484375 -1.125 -1.765625 -1.8125q-1.265625 -0.703125 -3.609375 -0.703125l-5.328125 0l0 9.328125zm0 -10.859375l4.9375 0q2.703125 0 4.078125 -1.1875q1.375 -1.1875 1.375 -3.171875q0 -1.0 -0.375 -1.9375q-0.375 -0.953125 -1.40625 -1.5625q-1.03125 -0.625 -2.96875 -0.625l-5.640625 0l0 8.484375zm18.64891 12.390625l0 -22.40625l12.21875 0l0 1.59375l-10.515625 0l0 8.421875l7.046875 0l0 1.59375l-7.046875 0l0 9.21875l11.21875 0l0 1.578125l-12.921875 0zm24.605026 0.390625q-1.78125 0 -3.25 -0.640625q-1.46875 -0.65625 -2.5 -1.75q-1.03125 -1.09375 -1.546875 -2.421875l1.6875 -0.5625q0.75 1.671875 2.21875 2.71875q1.484375 1.03125 3.421875 1.03125q2.28125 0 3.640625 -1.140625q1.359375 -1.140625 1.359375 -3.34375q0 -1.453125 -0.75 -2.484375q-0.75 -1.046875 -1.953125 -1.78125q-1.203125 -0.734375 -2.578125 -1.265625q-1.140625 -0.4375 -2.265625 -0.953125q-1.109375 -0.53125 -2.03125 -1.265625q-0.921875 -0.734375 -1.484375 -1.75q-0.5625 -1.03125 -0.5625 -2.46875q0 -1.421875 0.734375 -2.578125q0.75 -1.15625 2.15625 -1.828125q1.421875 -0.6875 3.453125 -0.6875q1.515625 0 2.75 0.484375q1.25 0.46875 2.09375 1.328125q0.859375 0.84375 1.21875 1.984375l-1.609375 0.5q-0.53125 -1.234375 -1.6875 -1.953125q-1.140625 -0.734375 -2.890625 -0.734375q-2.078125 0 -3.265625 0.953125q-1.171875 0.9375 -1.171875 2.59375q0 1.3125 0.75 2.171875q0.765625 0.859375 1.96875 1.46875q1.21875 0.609375 2.5625 1.140625q1.109375 0.4375 2.21875 1.015625q1.109375 0.578125 2.046875 1.40625q0.9375 0.828125 1.5 1.984375q0.5625 1.140625 0.5625 2.71875q0 1.9375 -0.875 3.296875q-0.875 1.359375 -2.421875 2.09375q-1.53125 0.71875 -3.5 0.71875zm27.951675 0q-2.46875 0 -4.203125 -1.015625q-1.734375 -1.015625 -2.78125 -2.703125q-1.046875 -1.703125 -1.53125 -3.75q-0.46875 -2.046875 -0.46875 -4.125q0 -2.078125 0.46875 -4.125q0.484375 -2.046875 1.53125 -3.734375q1.046875 -1.6875 2.78125 -2.703125q1.734375 -1.015625 4.203125 -1.015625q2.484375 0 4.203125 1.015625q1.71875 1.015625 2.765625 2.703125q1.0625 1.6875 1.546875 3.734375q0.484375 2.046875 0.484375 4.125q0 2.078125 -0.484375 4.125q-0.484375 2.046875 -1.546875 3.75q-1.046875 1.6875 -2.765625 2.703125q-1.71875 1.015625 -4.203125 1.015625zm0 -1.65625q2.015625 0 3.390625 -0.890625q1.375 -0.890625 2.21875 -2.359375q0.84375 -1.46875 1.21875 -3.21875q0.375 -1.75 0.375 -3.46875q0 -1.890625 -0.375 -3.65625q-0.375 -1.765625 -1.21875 -3.1875q-0.84375 -1.421875 -2.21875 -2.265625q-1.375 -0.84375 -3.390625 -0.84375q-2.0 0 -3.390625 0.890625q-1.375 0.890625 -2.21875 2.359375q-0.828125 1.46875 -1.203125 3.234375q-0.375 1.75 -0.375 3.46875q0 1.875 0.375 3.65625q0.375 1.765625 1.203125 3.203125q0.84375 1.421875 2.21875 2.25q1.390625 0.828125 3.390625 0.828125zm14.771423 1.265625l0 -22.40625l1.703125 0l0 9.96875l11.53125 0l0 -9.96875l1.6875 0l0 22.40625l-1.6875 0l0 -10.828125l-11.53125 0l0 10.828125l-1.703125 0zm31.022308 0.390625l-7.03125 -16.765625q-0.1875 -0.421875 -0.375 -0.875q-0.171875 -0.46875 -0.328125 -0.859375q0.015625 0.375 0.015625 0.84375q0.015625 0.46875 0.015625 0.890625l0 16.375l-1.703125 0l0 -22.40625l1.546875 0l7.21875 17.140625q0.15625 0.390625 0.3125 0.796875q0.171875 0.390625 0.328125 0.8125q0.15625 -0.40625 0.3125 -0.796875q0.171875 -0.40625 0.328125 -0.8125l7.203125 -17.140625l1.5625 0l0 22.40625l-1.6875 0l0 -16.375q0 -0.421875 0 -0.890625q0.015625 -0.484375 0.015625 -0.859375q-0.15625 0.40625 -0.34375 0.875q-0.1875 0.46875 -0.359375 0.90625l-7.03125 16.734375zm16.09784 -0.390625l0 -22.40625l1.703125 0l0 20.8125l11.0625 0l0 1.59375l-12.765625 0zm20.026154 0l0 -8.84375l-7.390625 -13.5625l1.875 0l6.375 11.859375l6.375 -11.859375l1.859375 0l-7.390625 13.546875l0 8.859375l-1.703125 0z" fill-rule="nonzero"/></g></svg>