<?xml version="1.0" encoding="utf-8"?>
<!-- Generator: Adobe Illustrator 25.2.0, SVG Export Plug-In . SVG Version: 6.00 Build 0)  -->
<svg version="1.1" xmlns="http://www.w3.org/2000/svg" xmlns:xlink="http://www.w3.org/1999/xlink" x="0px" y="0px"
	 viewBox="0 0 512 512" style="enable-background:new 0 0 512 512;" xml:space="preserve">
<style type="text/css">
	.st0{fill:#1D1D1B;}
</style>
<g id="Layer_2">
</g>
<g id="Layer_1">
	<g>
		<path class="st0" d="M432.11,79.22C384.89,32,322.11,6,255.33,6C188.56,6,125.78,32,78.56,79.22
			C31.34,126.44,5.33,189.22,5.33,256s26,129.56,73.22,176.78C125.78,480,188.56,506,255.33,506c66.78,0,129.56-26,176.78-73.22
			c47.22-47.22,73.22-110,73.22-176.78S479.33,126.44,432.11,79.22z M267.86,480.6V210.08h157.33c3.96,14.65,6.09,30.04,6.09,45.92
			c0,2.05-0.05,4.08-0.12,6.11h24.21c0.06-2.03,0.1-4.07,0.1-6.11c0-15.8-1.85-31.17-5.32-45.92h0.03
			c-1.93-8.2-4.36-16.21-7.27-23.99h-0.05h-26.03h-0.06H93.89h-0.06H67.8h-0.05c-0.13,0.35-0.24,0.7-0.37,1.04
			c-2.64,7.21-4.89,14.61-6.7,22.17c-0.06,0.26-0.13,0.51-0.19,0.77h0.03C57.04,224.83,55.2,240.2,55.2,256
			c0,2.05,0.04,4.08,0.1,6.11H79.5c-0.07-2.03-0.12-4.07-0.12-6.11c0-15.88,2.13-31.27,6.09-45.92h157.33V480.6
			C124.57,474.07,30.38,375.83,30.38,256c0-124.04,100.91-224.95,224.95-224.95S480.28,131.96,480.28,256
			C480.28,375.83,386.09,474.07,267.86,480.6z"/>
		<path class="st0" d="M405.87,312.95h15.29c-18.15,51.68-60.2,92.6-112.35,109.3l0-197.28h-25.05l0,229.22l15.23-3.37
			c36.37-8.05,69.75-26.13,96.55-52.29c26.75-26.12,45.63-59,54.58-95.09l3.86-15.54h-48.11V312.95z"/>
		<path class="st0" d="M104.8,312.95H89.51c18.15,51.68,60.2,92.6,112.35,109.3l0-197.28h25.05l0,229.22l-15.23-3.37
			c-36.37-8.05-69.75-26.13-96.55-52.29c-26.75-26.12-45.63-59-54.58-95.09L56.7,287.9h48.11V312.95z"/>
		<path class="st0" d="M392.1,145.88h-86.7c5.55-9.02,8.76-19.62,8.76-30.96c0-9.66-2.34-18.78-6.46-26.84
			c-9.22-18.04-27.4-30.76-48.65-32.23c-1.36-0.09-2.74-0.16-4.12-0.16c-1.39,0-2.76,0.07-4.12,0.16
			c-21.24,1.47-39.43,14.18-48.65,32.23c-4.12,8.06-6.46,17.18-6.46,26.84c0,11.34,3.21,21.95,8.76,30.96h-86.7H87.86
			c-5.27,7.97-9.98,16.34-14.09,25.05h27.16h134.79h7.09v-25.05v-0.17c-12.27-4.85-20.98-16.82-20.98-30.79
			c0-18.25,14.85-33.1,33.1-33.1c18.25,0,33.1,14.85,33.1,33.1c0,13.67-8.33,25.42-20.17,30.47v0.49v25.05h6.29h134.79h27.16
			c-4.1-8.71-8.82-17.08-14.09-25.05H392.1z"/>
	</g>
</g>
<g id="Layer_3">
</g>
</svg>
